#!OML:ASF H:\MichaelJackson\Top Level 1\Subject 1\Session 1\male.ASF
:FULLY-SPECIFIED
:DEGREES
389
root 1.14015 14.4906 20.1096 10.9029 9.74642 4.06328
lowerback -0.100088 -0.920637 -3.97505
upperback 0.0196219 -1.2187 -1.43479
thorax 0.127938 -0.610283 0.75274
lowerneck -5.9767 -3.99237 1.84254
upperneck 4.40756 -5.59861 1.98203
head 2.4277 -2.69092 0.0972195
rclavicle 1.35174e-014 -3.3197e-014
rhumerus -37.5638 -6.70208 -84.2401
rradius 90.8942
rwrist -14.5265
rhand -45.7911 -55.8465
rfingers 7.12502
rthumb -18.5447 -444.982
lclavicle 1.35174e-014 -3.3197e-014
lhumerus -56.1893 -30.7258 110.602
lradius 66.3819
lwrist 20.4928
lhand 23.5456 17.2933
lfingers 7.12502
lthumb 47.8226 39.5884
rfemur -49.5936 -22.9634 2.59057
rtibia 70.1876
rfoot -29.1091 3.82627
rtoes -38.353
lfemur 8.69314 -10.3139 -0.424176
ltibia 22.0111
lfoot -16.6416 27.535
ltoes -37.4971
390
root 1.07652 14.5391 20.1653 10.9906 9.07795 3.37566
lowerback 0.220316 -0.811922 -3.41544
upperback 0.145486 -1.08668 -1.12352
thorax 0.0673523 -0.544859 0.763578
lowerneck -6.00042 -3.76816 2.0873
upperneck 3.976 -5.30137 1.86177
head 2.27739 -2.54993 0.0347105
rclavicle -3.38431e-014 3.27995e-014
rhumerus -38.5439 -5.69034 -84.6709
rradius 92.5955
rwrist -14.455
rhand -43.6269 -46.9643
rfingers 7.12502
rthumb -16.462 -436.286
lclavicle -3.38431e-014 3.27995e-014
lhumerus -56.095 -31.0882 110.883
lradius 65.913
lwrist 20.0714
lhand 23.6765 16.709
lfingers 7.12502
lthumb 47.9434 38.9482
rfemur -49.6958 -21.8319 3.69457
rtibia 69.8172
rfoot -29.047 3.43356
rtoes -38.0062
lfemur 7.94018 -10.1041 0.0514165
ltibia 23.8619
lfoot -15.0457 27.9061
ltoes -37.4514
391
root 1.01117 14.5986 20.2202 11.0592 8.5138 2.69066
lowerback 0.588381 -0.71087 -2.84173
upperback 0.312122 -0.961504 -0.825054
thorax 0.0225558 -0.483112 0.752256
lowerneck -5.99334 -3.55961 2.30086
upperneck 3.49636 -5.02113 1.74159
head 2.10861 -2.41911 -0.0221724
rclavicle -2.79541e-014 1.40143e-014
rhumerus -39.5046 -4.62247 -85.0913
rradius 94.0767
rwrist -13.8239
rhand -40.3633 -38.7011
rfingers 7.12502
rthumb -13.318 -428.255
lclavicle -2.79541e-014 1.40143e-014
lhumerus -55.9106 -31.403 111.07
lradius 65.5107
lwrist 19.6745
lhand 23.7315 16.1044
lfingers 7.12502
lthumb 47.994 38.32
rfemur -49.6104 -20.6653 4.75341
rtibia 69.2961
rfoot -28.8987 2.98855
rtoes -37.6197
lfemur 6.83913 -9.69083 0.614214
ltibia 26.2122
lfoot -13.3348 28.0092
ltoes -37.1329
392
root 0.944551 14.6676 20.2738 11.1308 8.05857 2.0457
lowerback 0.981412 -0.631795 -2.287
upperback 0.50836 -0.86151 -0.549342
thorax -0.0042103 -0.433929 0.727129
lowerneck -5.96142 -3.35489 2.49379
upperneck 3.00165 -4.7432 1.60393
head 1.93272 -2.29072 -0.0808086
rclavicle -1.19271e-015 1.63997e-014
rhumerus -40.3601 -3.65444 -85.4731
rradius 95.2631
rwrist -12.9123
rhand -36.1979 -31.2726
rfingers 7.12502
rthumb -9.30074 -421.047
lclavicle -1.19271e-015 1.63997e-014
lhumerus -55.6684 -31.6654 111.173
lradius 65.2259
lwrist 19.3896
lhand 23.5391 15.5369
lfingers 7.12502
lthumb 47.8166 37.8348
rfemur -49.3806 -19.5047 5.74046
rtibia 68.6453
rfoot -28.6683 2.4976
rtoes -37.2118
lfemur 5.34871 -9.07842 1.22295
ltibia 29.0779
lfoot -11.4859 27.8686
ltoes -36.4684
393
root 0.877582 14.7442 20.3254 11.2144 7.71856 1.471
lowerback 1.39583 -0.581854 -1.76604
upperback 0.721223 -0.796715 -0.313089
thorax -0.0242694 -0.401959 0.680012
lowerneck -5.92039 -3.15385 2.68223
upperneck 2.53712 -4.47032 1.44522
head 1.76692 -2.16493 -0.146034
rclavicle 2.6339e-015 -3.8266e-015
rhumerus -41.0926 -2.92749 -85.8043
rradius 96.1568
rwrist -12.0831
rhand -31.3098 -24.6788
rfingers 7.12502
rthumb -4.5823 -414.609
lclavicle 2.6339e-015 -3.8266e-015
lhumerus -55.425 -31.9059 111.212
lradius 65.1166
lwrist 19.2753
lhand 22.9946 15.0774
lfingers 7.12502
lthumb 47.3139 37.6041
rfemur -49.0399 -18.3926 6.63185
rtibia 67.8906
rfoot -28.3629 1.97974
rtoes -36.7697
lfemur 3.46395 -8.30122 1.8273
ltibia 32.4441
lfoot -9.53569 27.5247
ltoes -35.3832
394
root 0.811313 14.8258 20.3745 11.3168 7.48651 0.9984
lowerback 1.82392 -0.559652 -1.30562
upperback 0.945149 -0.765884 -0.126148
thorax -0.0391849 -0.386552 0.616322
lowerneck -5.9051 -2.96145 2.85892
upperneck 2.14174 -4.21131 1.27998
head 1.6303 -2.0449 -0.213549
rclavicle -2.04997e-015 -1.2275e-014
rhumerus -41.6815 -2.50287 -86.0537
rradius 96.7624
rwrist -11.6692
rhand -25.8235 -18.9779
rfingers 7.12502
rthumb 0.716259 -408.956
lclavicle -2.04997e-015 -1.2275e-014
lhumerus -55.2029 -32.1723 111.218
lradius 65.2027
lwrist 19.3371
lhand 22.0626 14.7682
lfingers 7.12502
lthumb 46.4515 37.6723
rfemur -48.626 -17.3638 7.39907
rtibia 67.0631
rfoot -27.9955 1.46043
rtoes -36.2927
lfemur 1.20554 -7.38504 2.36548
ltibia 36.2733
lfoot -7.59898 26.9934
ltoes -33.7214
395
root 0.747074 14.9099 20.4208 11.437 7.34355 0.635312
lowerback 2.26808 -0.55303 -0.906996
upperback 1.17231 -0.753572 0.00858399
thorax -0.0589634 -0.379929 0.53407
lowerneck -5.93773 -2.78854 3.0212
upperneck 1.83549 -3.9819 1.11694
head 1.53269 -1.93789 -0.281217
rclavicle -2.0158e-014 2.21148e-015
rhumerus -42.148 -2.38637 -86.2055
rradius 97.1188
rwrist -11.8886
rhand -19.9622 -14.262
rfingers 7.12502
rthumb 6.37626 -404.146
lclavicle -2.0158e-014 2.21148e-015
lhumerus -55.0222 -32.5124 111.232
lradius 65.4856
lwrist 19.5281
lhand 20.7954 14.6191
lfingers 7.12502
lthumb 45.2753 38.0094
rfemur -48.1714 -16.4385 8.03755
rtibia 66.1915
rfoot -27.582 0.958144
rtoes -35.7896
lfemur -1.3773 -6.35223 2.7913
ltibia 40.5057
lfoot -5.8156 26.2477
ltoes -31.2348
396
root 0.685983 14.9946 20.4644 11.5658 7.26654 0.368592
lowerback 2.73658 -0.544997 -0.558379
upperback 1.39685 -0.737512 0.0982183
thorax -0.0947164 -0.370969 0.433748
lowerneck -6.02752 -2.6474 3.16676
upperneck 1.61782 -3.79849 0.95632
head 1.47469 -1.85216 -0.349065
rclavicle 6.07846e-015 -4.5472e-015
rhumerus -42.5188 -2.53385 -86.2436
rradius 97.2772
rwrist -12.8856
rhand -14.1815 -10.6703
rfingers 7.12502
rthumb 11.9541 -400.309
lclavicle 6.07846e-015 -4.5472e-015
lhumerus -54.886 -32.9607 111.291
lradius 65.9431
lwrist 19.7645
lhand 19.2935 14.6551
lfingers 7.12502
lthumb 43.8764 38.5839
rfemur -47.6929 -15.6218 8.56305
rtibia 65.2973
rfoot -27.1378 0.490115
rtoes -35.2613
lfemur -4.22017 -5.23784 3.07853
ltibia 45.068
lfoot -4.26056 25.233
ltoes -27.6412
